<?xml version="1.0" encoding="UTF-8" standalone="no"?>
<svg width="43px" height="37px" viewBox="0 0 43 37" version="1.1" xmlns="http://www.w3.org/2000/svg" xmlns:xlink="http://www.w3.org/1999/xlink">
    <!-- Generator: sketchtool 3.7.2 (28276) - http://www.bohemiancoding.com/sketch -->
    <title>99631AC2-07D0-452B-B9F2-545E9A72753B</title>
    <desc>Created with sketchtool.</desc>
    <defs>
        <linearGradient x1="134.897503%" y1="-21.4907787%" x2="22.6645967%" y2="100%" id="linearGradient-1">
            <stop stop-color="#59C4FC" offset="0%"></stop>
            <stop stop-color="#2D91F6" offset="100%"></stop>
        </linearGradient>
    </defs>
    <g id="Formulario" stroke="none" stroke-width="1" fill="none" fill-rule="evenodd">
        <g id="clear_form_uplds_b" transform="translate(-593.000000, -572.000000)" fill="url(#linearGradient-1)">
            <path d="M614.499997,586.942309 C616.276745,586.942309 617.795912,587.5686 619.057549,588.821214 C620.31919,590.073823 620.950001,591.582119 620.950001,593.346154 C620.950001,595.110183 620.31919,596.618484 619.057549,597.871093 C617.795912,599.123702 616.276745,599.749999 614.499997,599.749999 C612.723255,599.749999 611.204083,599.123702 609.942446,597.871093 C608.68081,596.618484 608.049999,595.110183 608.049999,593.346154 C608.049999,591.582119 608.68081,590.073823 609.942446,588.821214 C611.204083,587.5686 612.723255,586.942309 614.499997,586.942309 L614.499997,586.942309 Z M630.266663,577.692307 C631.849311,577.692307 633.200515,578.248191 634.32031,579.359974 C635.44011,580.471761 636,581.813291 636,583.384615 L636,603.307693 C636,604.879014 635.44011,606.220547 634.32031,607.332332 C633.200515,608.444116 631.849311,609 630.266663,609 L598.733332,609 C597.150686,609 595.799484,608.444116 594.679687,607.332332 C593.55989,606.220547 593,604.879014 593,603.307693 L593,583.384615 C593,581.813291 593.55989,580.471761 594.679687,579.359974 C595.799484,578.248191 597.150686,577.692307 598.733332,577.692307 L603.749999,577.692307 L604.892188,574.668268 C605.175871,573.941902 605.694699,573.315606 606.448699,572.789362 C607.202694,572.263114 607.975341,572 608.766665,572 L620.23333,572 C621.024654,572 621.797306,572.263114 622.551301,572.789362 C623.305296,573.315606 623.824129,573.941902 624.107812,574.668268 L625.249996,577.692307 L630.266663,577.692307 Z M614.499997,603.307693 C617.262164,603.307693 619.624904,602.333041 621.588281,600.383712 C623.551659,598.434383 624.53333,596.088555 624.53333,593.346154 C624.53333,590.603752 623.551659,588.257919 621.588281,586.30859 C619.624904,584.359262 617.262164,583.384615 614.499997,583.384615 C611.737831,583.384615 609.375096,584.359262 607.411719,586.30859 C605.448341,588.257919 604.466665,590.603752 604.466665,593.346154 C604.466665,596.088555 605.448341,598.434383 607.411719,600.383712 C609.375096,602.333041 611.737831,603.307693 614.499997,603.307693 L614.499997,603.307693 Z" id="camera_icon"></path>
        </g>
    </g>
</svg>