<?xml version="1.0" encoding="UTF-8" standalone="no"?>
<svg width="38px" height="33px" viewBox="0 0 38 33" version="1.1" xmlns="http://www.w3.org/2000/svg" xmlns:xlink="http://www.w3.org/1999/xlink">
    <!-- Generator: sketchtool 3.7.2 (28276) - http://www.bohemiancoding.com/sketch -->
    <title>3E745E84-72E7-4E5E-8BDA-E3A8A1729612</title>
    <desc>Created with sketchtool.</desc>
    <defs>
        <linearGradient x1="134.897503%" y1="-21.4907787%" x2="22.6645967%" y2="100%" id="linearGradient-1">
            <stop stop-color="#59C4FC" offset="0%"></stop>
            <stop stop-color="#2D91F6" offset="100%"></stop>
        </linearGradient>
    </defs>
    <g id="Formulario" stroke="none" stroke-width="1" fill="none" fill-rule="evenodd">
        <g id="clear_form_uplds_b" transform="translate(-926.000000, -576.000000)" fill="url(#linearGradient-1)">
            <path d="M961.466667,576 L951.333333,576 C950.647221,576 950.053473,576.251201 949.552086,576.753608 C949.050694,577.25601 948.8,577.85096 948.8,578.538462 C948.588887,580.072124 947.744451,580.918269 946.266667,581.076923 L928.533333,581.076923 C927.847219,581.076923 927.253475,581.328124 926.752083,581.830531 C926.250692,582.332934 926,582.927883 926,583.615385 L926,606.461538 C926,607.149042 926.250692,607.743988 926.752083,608.246394 C927.253475,608.748801 927.847219,609 928.533333,609 L961.466667,609 C962.152779,609 962.746527,608.748801 963.247914,608.246394 C963.749306,607.743988 964,607.149042 964,606.461538 L964,578.538462 C964,577.85096 963.749306,577.25601 963.247914,576.753608 C962.746527,576.251201 962.152779,576 961.466667,576 L961.466667,576 Z M952.6,596.307692 L946.266667,596.307692 L946.266667,602.653846 C946.266667,603.02404 946.147919,603.328122 945.910419,603.566108 C945.672914,603.804089 945.369446,603.923077 945,603.923077 C944.630554,603.923077 944.327086,603.804089 944.089581,603.566108 C943.852081,603.328122 943.733333,603.02404 943.733333,602.653846 L943.733333,596.307692 L937.4,596.307692 C937.030554,596.307692 936.727086,596.188704 936.489581,595.950724 C936.252081,595.712738 936.133333,595.408656 936.133333,595.038462 C936.133333,594.668268 936.252081,594.364185 936.489581,594.126199 C936.727086,593.888219 937.030554,593.769231 937.4,593.769231 L943.733333,593.769231 L943.733333,587.423077 C943.733333,587.052883 943.852081,586.748801 944.089581,586.510815 C944.327086,586.272834 944.630554,586.153846 945,586.153846 C945.369446,586.153846 945.672914,586.272834 945.910419,586.510815 C946.147919,586.748801 946.266667,587.052883 946.266667,587.423077 L946.266667,593.769231 L952.6,593.769231 C952.969446,593.769231 953.272914,593.888219 953.510419,594.126199 C953.747919,594.364185 953.866667,594.668268 953.866667,595.038462 C953.866667,595.408656 953.747919,595.712738 953.510419,595.950724 C953.272914,596.188704 952.969446,596.307692 952.6,596.307692 L952.6,596.307692 Z" id="file_icon"></path>
        </g>
    </g>
</svg>