<?xml version="1.0" encoding="UTF-8" standalone="no"?>
<svg width="31px" height="20px" viewBox="0 0 31 20" version="1.1" xmlns="http://www.w3.org/2000/svg" xmlns:xlink="http://www.w3.org/1999/xlink">
    <!-- Generator: sketchtool 3.7.2 (28276) - http://www.bohemiancoding.com/sketch -->
    <title>D71E1701-3E27-4C60-9695-FD0331393358</title>
    <desc>Created with sketchtool.</desc>
    <defs></defs>
    <g id="Cotizador" stroke="none" stroke-width="1" fill="none" fill-rule="evenodd">
        <g id="Cotizador_login" transform="translate(-562.000000, -412.000000)" fill="#FFFFFF">
            <g id="google_icon" transform="translate(562.000000, 412.000000)">
                <path d="M9.86363636,8.57142857 L9.86363636,12 L15.4577273,12 C15.2322727,13.4714286 13.7668182,16.3142857 9.86363636,16.3142857 C6.49590909,16.3142857 3.74818182,13.4857143 3.74818182,10 C3.74818182,6.51428571 6.49590909,3.68571429 9.86363636,3.68571429 C11.78,3.68571429 13.0622727,4.51428571 13.795,5.22857143 L16.4722727,2.61428571 C14.7531818,0.985714286 12.5268182,0 9.86363636,0 C4.41045455,0 0,4.47142857 0,10 C0,15.5285714 4.41045455,20 9.86363636,20 C15.5563636,20 19.3327273,15.9428571 19.3327273,10.2285714 C19.3327273,9.57142857 19.2622727,9.07142857 19.1777273,8.57142857 L9.86363636,8.57142857 L9.86363636,8.57142857 Z" id="Shape"></path>
                <polyline id="Shape" points="31 8.57142857 28.1818182 8.57142857 28.1818182 5.71428571 25.3636364 5.71428571 25.3636364 8.57142857 22.5454545 8.57142857 22.5454545 11.4285714 25.3636364 11.4285714 25.3636364 14.2857143 28.1818182 14.2857143 28.1818182 11.4285714 31 11.4285714"></polyline>
            </g>
        </g>
    </g>
</svg>