<?xml version="1.0" encoding="UTF-8" standalone="no"?>
<svg width="36px" height="36px" viewBox="0 0 36 36" version="1.1" xmlns="http://www.w3.org/2000/svg" xmlns:xlink="http://www.w3.org/1999/xlink">
    <!-- Generator: sketchtool 3.7.2 (28276) - http://www.bohemiancoding.com/sketch -->
    <title>024F69A3-DCB6-4C8D-85FA-CBD470AD2997</title>
    <desc>Created with sketchtool.</desc>
    <defs></defs>
    <g id="Page-1" stroke="none" stroke-width="1" fill="none" fill-rule="evenodd">
        <g id="Solicitud_visita" transform="translate(-739.000000, -1458.000000)" fill="#FB5E48">
            <path d="M757,1458 C762.000028,1458 766.249984,1459.74998 769.75,1463.25 C773.250016,1466.75002 775,1470.99997 775,1476 C775,1481.00003 773.250016,1485.24998 769.75,1488.75 C766.249984,1492.25002 762.000028,1494 757,1494 C751.999972,1494 747.750016,1492.25002 744.25,1488.75 C740.749983,1485.24998 739,1481.00003 739,1476 C739,1470.99997 740.749983,1466.75002 744.25,1463.25 C747.750016,1459.74998 751.999972,1458 757,1458 L757,1458 Z M758.875,1486.03125 L758.875,1474.40625 C758.875,1473.96875 758.656252,1473.75 758.21875,1473.75 L755.78125,1473.75 C755.343748,1473.75 755.125,1473.96875 755.125,1474.40625 L755.125,1486.03125 C755.125,1486.40625 755.343748,1486.59375 755.78125,1486.59375 L758.21875,1486.59375 C758.656252,1486.59375 758.875,1486.40625 758.875,1486.03125 L758.875,1486.03125 Z M757,1471.125 C757.625002,1471.125 758.140624,1470.92188 758.546872,1470.51563 C758.953126,1470.10937 759.15625,1469.59375 759.15625,1468.96875 C759.15625,1468.34375 758.953126,1467.82813 758.546872,1467.42187 C758.140624,1467.01562 757.625002,1466.8125 757,1466.8125 C756.374998,1466.8125 755.859376,1467.01562 755.453128,1467.42187 C755.046874,1467.82813 754.84375,1468.34375 754.84375,1468.96875 C754.84375,1469.59375 755.046874,1470.10937 755.453128,1470.51563 C755.859376,1470.92188 756.374998,1471.125 757,1471.125 L757,1471.125 Z" id="info_red"></path>
        </g>
    </g>
</svg>