<?xml version="1.0" encoding="UTF-8" standalone="no"?>
<svg width="20px" height="21px" viewBox="0 0 20 21" version="1.1" xmlns="http://www.w3.org/2000/svg" xmlns:xlink="http://www.w3.org/1999/xlink">
    <!-- Generator: sketchtool 3.7.2 (28276) - http://www.bohemiancoding.com/sketch -->
    <title>873F517D-01E8-45F7-816A-7A47A7F1E08F</title>
    <desc>Created with sketchtool.</desc>
    <defs></defs>
    <g id="Page-1" stroke="none" stroke-width="1" fill="none" fill-rule="evenodd">
        <g id="verif_detail_home" transform="translate(-802.000000, -289.000000)" fill="#98A1AE">
            <path d="M822,289.641921 L822,309.358079 L822,309.40393 L822,309.495633 L821.953488,309.495633 C821.891474,309.831879 821.689924,310 821.348837,310 L802.651163,310 C802.217052,310 802,309.786028 802,309.358079 L802,296.382096 L809.488372,289 L809.488372,289 L821.348837,289 L821.348837,289 C821.782948,289 822,289.213972 822,289.641921 L822,289.641921 Z M816.186047,291.338428 L815.302326,292.851528 L819.627907,297.069869 L819.627907,291.338428 L816.186047,291.338428 Z M809.488372,297.024017 L804.372093,297.024017 L804.372093,298.445415 L808.372093,302.342795 L814.837209,291.338428 L810.139535,291.338428 L810.139535,296.382096 C810.139535,296.810046 809.922483,297.024017 809.488372,297.024017 L809.488372,297.024017 Z M804.372093,307.661572 L805.255814,307.661572 L807.72093,303.39738 L804.372093,300.09607 L804.372093,307.661572 Z M806.604651,307.661572 L819.627907,307.661572 L819.627907,298.766376 L814.697674,293.906114 L806.604651,307.661572 Z M814.837209,298.445415 C815.643416,298.445415 816.325578,298.728163 816.883721,299.293667 C817.441863,299.859174 817.72093,300.524014 817.72093,301.28821 C817.72093,301.960703 817.534887,302.526198 817.162791,302.984716 L815.348837,306.056769 C815.348837,306.087337 815.317828,306.133189 815.255814,306.194323 C815.131782,306.316595 815.007753,306.377729 814.883721,306.377729 C814.666666,306.377729 814.511628,306.316595 814.418605,306.194323 L814.418605,306.148472 L814.418605,306.10262 L812.55814,302.938865 C812.186044,302.419212 812,301.869 812,301.28821 C812,300.493445 812.279067,299.820964 812.837209,299.270742 C813.395352,298.720521 814.062012,298.445415 814.837209,298.445415 L814.837209,298.445415 Z M814.837209,302.709607 C815.240311,302.709607 815.573641,302.579697 815.837211,302.319868 C816.100778,302.060041 816.232558,301.731442 816.232558,301.334061 C816.232558,300.93668 816.100778,300.600437 815.837211,300.325328 C815.573641,300.050218 815.240311,299.912664 814.837209,299.912664 C814.434108,299.912664 814.100778,300.050218 813.837208,300.325328 C813.573641,300.600437 813.44186,300.93668 813.44186,301.334061 C813.44186,301.731442 813.573641,302.060041 813.837208,302.319868 C814.100778,302.579697 814.434108,302.709607 814.837209,302.709607 L814.837209,302.709607 Z" id="mapicon"></path>
        </g>
    </g>
</svg>