<?xml version="1.0" encoding="UTF-8" standalone="no"?>
<svg width="41px" height="41px" viewBox="0 0 41 41" version="1.1" xmlns="http://www.w3.org/2000/svg" xmlns:xlink="http://www.w3.org/1999/xlink">
    <!-- Generator: sketchtool 3.7.2 (28276) - http://www.bohemiancoding.com/sketch -->
    <title>D64F3C14-B5F5-4D05-B11D-DF900C1F4131</title>
    <desc>Created with sketchtool.</desc>
    <defs></defs>
    <g id="Page-1" stroke="none" stroke-width="1" fill="none" fill-rule="evenodd" opacity="0.523554104">
        <g id="Solicitud_docs" transform="translate(-302.000000, -279.000000)">
            <g id="Group-5" transform="translate(274.000000, 270.000000)">
                <g id="pdf" transform="translate(28.000000, 9.000000)">
                    <path d="M37.8799804,18.2056078 L12.0877647,18.2056078 C10.6744706,18.2056078 9.52566667,19.3552157 9.52566667,20.7677059 L9.52566667,32.39 C9.52566667,33.8032941 10.6744706,34.952902 12.0877647,34.952902 L37.8799804,34.952902 C39.2924706,34.952902 40.4412745,33.8032941 40.4412745,32.39 L40.4412745,20.7677059 C40.4412745,19.3552157 39.2924706,18.2056078 37.8799804,18.2056078 L37.8799804,18.2056078 Z M38.8334314,32.39 C38.8334314,32.9165686 38.4057451,33.3450588 37.8799804,33.3450588 L12.0877647,33.3450588 C11.5611961,33.3450588 11.1335098,32.9165686 11.1335098,32.39 L11.1335098,20.7677059 C11.1335098,20.2419412 11.5611961,19.813451 12.0877647,19.813451 L37.8799804,19.813451 C38.4057451,19.813451 38.8334314,20.2419412 38.8334314,20.7677059 L38.8334314,32.39 L38.8334314,32.39 Z" id="Fill-1" fill="#FB5E48"></path>
                    <path d="M17.2658235,22.8868431 L14.8484314,22.8868431 C14.4818431,22.8868431 14.1843922,23.1891176 14.1843922,23.5621373 L14.1843922,30.3391961 C14.1843922,30.7114118 14.4818431,31.0136863 14.8484314,31.0136863 C15.2206471,31.0136863 15.5229216,30.7114118 15.5229216,30.3391961 L15.5229216,28.2811569 L17.1259412,28.2811569 C19.0529412,28.2811569 20.3488627,27.1862157 20.3488627,25.5349608 C20.3488627,23.9263137 19.1389608,22.8868431 17.2658235,22.8868431 L17.2658235,22.8868431 Z M18.9990784,25.5888235 C18.9990784,26.4578627 18.275549,27.0181961 17.158098,27.0181961 L15.5229216,27.0181961 L15.5229216,24.1602549 L17.2007059,24.1602549 C17.7409412,24.1602549 18.9990784,24.2977255 18.9990784,25.5888235 L18.9990784,25.5888235 Z" id="Fill-2" fill="#FB5E48"></path>
                    <path d="M24.3041569,22.8868431 L22.0925686,22.8868431 C21.7251765,22.8868431 21.4277255,23.1891176 21.4277255,23.5621373 L21.4277255,30.2845294 C21.4277255,30.6567451 21.7251765,30.9598235 22.0925686,30.9598235 L24.3041569,30.9598235 C26.7810392,30.9598235 28.5794118,29.2619412 28.5794118,26.9016275 C28.5794118,24.5750784 26.7810392,22.8868431 24.3041569,22.8868431 L24.3041569,22.8868431 Z M24.3041569,29.6856078 L22.7662549,29.6856078 L22.7662549,24.1602549 L24.3041569,24.1602549 C26.0132941,24.1602549 27.2079216,25.2961961 27.2079216,26.9442353 C27.2079216,28.5585098 26.0132941,29.6856078 24.3041569,29.6856078 L24.3041569,29.6856078 Z" id="Fill-3" fill="#FB5E48"></path>
                    <path d="M35.2672353,22.8868431 L30.5715294,22.8868431 C30.2057451,22.8868431 29.9082941,23.1891176 29.9082941,23.5621373 L29.9082941,30.3391961 C29.9082941,30.7114118 30.2057451,31.0136863 30.5715294,31.0136863 C30.9437451,31.0136863 31.2468235,30.7114118 31.2468235,30.3391961 L31.2468235,27.6516863 L34.7800588,27.6516863 C35.1273529,27.6516863 35.4111373,27.3687059 35.4111373,27.0206078 C35.4111373,26.6725098 35.1273529,26.3895294 34.7800588,26.3895294 L31.2468235,26.3895294 L31.2468235,24.1602549 L35.2672353,24.1602549 C35.6153333,24.1602549 35.8983137,23.872451 35.8983137,23.5179216 C35.8983137,23.1698235 35.6153333,22.8868431 35.2672353,22.8868431" id="Fill-4" fill="#FB5E48"></path>
                    <path d="M31.6552157,36.4152353 C31.2106471,36.4152353 30.8512941,36.7753922 30.8512941,37.2191569 L30.8512941,38.6131569 C30.8512941,38.9065882 30.6117255,39.1453529 30.3174902,39.1453529 L2.53958824,39.1453529 C2.24615686,39.1453529 2.00658824,38.9065882 2.00658824,38.6131569 L2.00658824,2.86035294 C2.00658824,2.56692157 2.24615686,2.32815686 2.53958824,2.32815686 L23.913451,2.32815686 L23.9198824,8.38329412 C23.9206863,8.82705882 24.2800392,9.18641176 24.7238039,9.18641176 L30.8512941,9.18641176 L30.8512941,15.7255098 C30.8512941,16.1692745 31.2106471,16.5294314 31.6552157,16.5294314 C32.0997843,16.5294314 32.4591373,16.1692745 32.4591373,15.7255098 L32.4591373,8.3824902 C32.4591373,7.81411765 32.2268039,7.25780392 31.8216275,6.8582549 L26.2182941,1.33611765 C25.8155294,0.938980392 25.2825294,0.720313725 24.7165686,0.720313725 L2.53958824,0.720313725 C1.35862745,0.720313725 0.398745098,1.68019608 0.398745098,2.86035294 L0.398745098,38.6131569 C0.398745098,39.7933137 1.35862745,40.7531961 2.53958824,40.7531961 L30.3174902,40.7531961 C31.498451,40.7531961 32.4591373,39.7933137 32.4591373,38.6131569 L32.4591373,37.2191569 C32.4591373,36.7753922 32.0997843,36.4152353 31.6552157,36.4152353 L31.6552157,36.4152353 Z M30.2620196,7.57856863 L25.5269216,7.57856863 L25.522098,2.90698039 L30.2620196,7.57856863 L30.2620196,7.57856863 Z" id="Fill-5" fill="#252D60"></path>
                </g>
            </g>
        </g>
    </g>
</svg>