<?xml version="1.0" encoding="UTF-8" standalone="no"?>
<svg width="58px" height="45px" viewBox="0 0 58 45" version="1.1" xmlns="http://www.w3.org/2000/svg" xmlns:xlink="http://www.w3.org/1999/xlink">
    <!-- Generator: sketchtool 3.7.2 (28276) - http://www.bohemiancoding.com/sketch -->
    <title>725B7080-04F4-4EF0-B8BB-8F4B2081C68E</title>
    <desc>Created with sketchtool.</desc>
    <defs></defs>
    <g id="Page-1" stroke="none" stroke-width="1" fill="none" fill-rule="evenodd">
        <g id="Config_colors" transform="translate(-523.000000, -345.000000)" fill="#98A1AE">
            <path d="M577.791761,345 L526.208243,345 C525.327545,345 524.572671,345.313804 523.943601,345.941419 C523.31453,346.569034 523,347.322164 523,348.200833 L523,386.736401 C523,387.656908 523.31453,388.430959 523.943601,389.058577 C524.572671,389.686196 525.327545,390 526.208243,390 L577.791761,390 C578.672455,390 579.427328,389.686196 580.056403,389.058577 C580.68547,388.430959 581,387.656908 581,386.736401 L581,348.200833 C581,347.322164 580.68547,346.569034 580.056403,345.941419 C579.427328,345.313804 578.672455,345 577.791761,345 L577.791761,345 Z M562.44252,356.234307 C563.574841,356.234307 564.528922,356.631795 565.30477,357.426771 C566.080627,358.221756 566.468551,359.163174 566.468551,360.251043 C566.468551,361.338912 566.080627,362.280331 565.30477,363.075315 C564.528922,363.870292 563.574841,364.26778 562.44252,364.26778 C561.352126,364.26778 560.408538,363.870292 559.611714,363.075315 C558.81489,362.280331 558.41649,361.338912 558.41649,360.251043 C558.41649,359.163174 558.81489,358.221756 559.611714,357.426771 C560.408538,356.631795 561.352126,356.234307 562.44252,356.234307 L562.44252,356.234307 Z M532.687636,380.334727 L543.318876,355.857738 L555.45987,375.439329 L565.902386,370.292885 L571.312364,380.334727 L532.687636,380.334727 Z" id="photo_place"></path>
        </g>
    </g>
</svg>