<?xml version="1.0" encoding="UTF-8" standalone="no"?>
<svg width="33px" height="27px" viewBox="0 0 33 27" version="1.1" xmlns="http://www.w3.org/2000/svg" xmlns:xlink="http://www.w3.org/1999/xlink">
    <!-- Generator: sketchtool 3.7.2 (28276) - http://www.bohemiancoding.com/sketch -->
    <title>BB2AFB7D-F60D-4241-B719-4B0D6E9BE330</title>
    <desc>Created with sketchtool.</desc>
    <defs></defs>
    <g id="Page-1" stroke="none" stroke-width="1" fill="none" fill-rule="evenodd">
        <g id="Solicitud_visita" transform="translate(-653.000000, -391.000000)" fill="#98A1AE">
            <g id="Group-2" transform="translate(583.000000, 374.000000)">
                <path d="M98.0480192,44 L74.9519808,44 C73.5786247,44 72.4099686,43.5067617 71.4459784,42.5202703 C70.481988,41.5337791 70,40.3378448 70,38.9324324 L70,25.4324324 C70,24.0270186 70.481988,22.8310878 71.4459784,21.8445946 C72.4099686,20.8581014 73.5786247,20.3648649 74.9519808,20.3648649 L77.5666267,20.3648649 L79.2304922,18.6621622 C79.7058824,18.1756757 80.313322,17.7770304 81.0528211,17.4662162 C81.7923202,17.155402 82.5054005,17 83.1920768,17 L89.8079232,17 C90.4945995,17 91.2142808,17.155402 91.9669868,17.4662162 C92.7196928,17.7770304 93.3337335,18.1756757 93.8091236,18.6621622 L95.4333733,20.3648649 L98.0480192,20.3648649 C99.4213768,20.3648649 100.590029,20.8581014 101.554022,21.8445946 C102.518014,22.8310878 103,24.0270186 103,25.4324324 L103,38.9324324 C103,40.3378448 102.518014,41.5337791 101.554022,42.5202703 C100.590029,43.5067617 99.4213768,44 98.0480192,44 L98.0480192,44 Z M74.9519808,23.7297297 C74.5029991,23.7297297 74.113447,23.898647 73.7833133,24.2364865 C73.4531796,24.574326 73.2881152,24.9729713 73.2881152,25.4324324 L73.2881152,38.9324324 C73.2881152,39.3918941 73.4531796,39.7905389 73.7833133,40.1283784 C74.113447,40.4662179 74.5029991,40.6351351 74.9519808,40.6351351 L98.0480192,40.6351351 C98.4970005,40.6351351 98.886553,40.4662179 99.2166867,40.1283784 C99.5468204,39.7905389 99.7118848,39.3918941 99.7118848,38.9324324 L99.7118848,25.4324324 C99.7118848,24.9729713 99.5468204,24.574326 99.2166867,24.2364865 C98.886553,23.898647 98.4970005,23.7297297 98.0480192,23.7297297 L94.759904,23.7297297 C94.3109227,23.7297297 93.9279712,23.5675676 93.6110444,23.2432432 L91.4717887,21.0540541 C91.0228075,20.5945929 90.4681906,20.3648649 89.8079232,20.3648649 L83.1920768,20.3648649 C82.5582183,20.3648649 82.0168084,20.5945929 81.5678271,21.0540541 L79.4285714,23.2432432 C79.1116447,23.5675676 78.7154862,23.7297297 78.240096,23.7297297 L74.9519808,23.7297297 Z M86.5198079,27.1351351 C85.3841504,27.1351351 84.4069661,27.5472956 83.5882353,28.3716216 C82.7695045,29.1959476 82.3601441,30.1891858 82.3601441,31.3513514 C82.3601441,32.5135169 82.7695045,33.5067551 83.5882353,34.3310811 C84.4069661,35.1554071 85.3841504,35.5675676 86.5198079,35.5675676 C87.6554655,35.5675676 88.6260488,35.1554071 89.4315726,34.3310811 C90.2370965,33.5067551 90.6398559,32.5135169 90.6398559,31.3513514 C90.6398559,30.1891858 90.2370965,29.1959476 89.4315726,28.3716216 C88.6260488,27.5472956 87.6554655,27.1351351 86.5198079,27.1351351 L86.5198079,27.1351351 Z M86.5198079,25.4324324 C88.1308606,25.4324324 89.4909914,26.00675 90.6002401,27.1554054 C91.7094887,28.3040608 92.2641056,29.7026943 92.2641056,31.3513514 C92.2641056,32.9729831 91.7028878,34.3648615 90.5804322,35.527027 C89.4579766,36.6891926 88.1044517,37.2702703 86.5198079,37.2702703 C84.9087553,37.2702703 83.5420234,36.6891926 82.4195678,35.527027 C81.2971122,34.3648615 80.7358944,32.9729831 80.7358944,31.3513514 C80.7358944,29.7026943 81.2971122,28.3040608 82.4195678,27.1554054 C83.5420234,26.00675 84.9087553,25.4324324 86.5198079,25.4324324 L86.5198079,25.4324324 Z M96.4237695,24.9054054 C97.0048052,24.9054054 97.5065993,25.1216182 97.9291717,25.5540541 C98.351744,25.9864899 98.5630252,26.5135118 98.5630252,27.1351351 C98.5630252,27.7567584 98.358345,28.2770253 97.9489796,28.6959459 C97.5396142,29.1148666 97.0312141,29.3243243 96.4237695,29.3243243 C95.8163249,29.3243243 95.3013238,29.1081115 94.8787515,28.6756757 C94.4561792,28.2432399 94.244898,27.7297331 94.244898,27.1351351 C94.244898,26.5135118 94.4561792,25.9864899 94.8787515,25.5540541 C95.3013238,25.1216182 95.8163249,24.9054054 96.4237695,24.9054054 L96.4237695,24.9054054 Z" id="photo"></path>
            </g>
        </g>
    </g>
</svg>